<svg xmlns="http://www.w3.org/2000/svg" xmlns:dc="http://purl.org/dc/elements/1.1/" xmlns:ns2="http://creativecommons.org/ns#" xmlns:ns4="http://www.w3.org/1999/xlink" xmlns:rdf="http://www.w3.org/1999/02/22-rdf-syntax-ns#" width="432pt" height="288pt" viewBox="0 0 432 288" version="1.1">
 <script type="text/ecmascript">

var container = {"hist_0": ["hist_0_patch_0", "hist_0_patch_1", "hist_0_patch_2", "hist_0_patch_3", "hist_0_patch_4", "hist_0_patch_5", "hist_0_patch_6", "hist_0_patch_7", "hist_0_patch_8", "hist_0_patch_9"], "hist_1": ["hist_1_patch_0", "hist_1_patch_1", "hist_1_patch_2", "hist_1_patch_3", "hist_1_patch_4", "hist_1_patch_5", "hist_1_patch_6", "hist_1_patch_7", "hist_1_patch_8", "hist_1_patch_9"]}

function toggle(oid, attribute, values) {
    /* Toggle the style attribute of an object between two values.

    Parameters
    ----------
    oid : str
      Object identifier.
    attribute : str
      Name of style attribute.
    values : [on state, off state]
      The two values that are switched between.
    */
    var obj = document.getElementById(oid);
    var a = obj.style[attribute];

    a = (a == values[0] || a == "") ? values[1] : values[0];
    obj.style[attribute] = a;
    }

function toggle_hist(obj) {

    var num = obj.id.slice(-1);

    toggle('leg_patch_' + num, 'opacity', [1, 0.3]);
    toggle('leg_text_' + num, 'opacity', [1, 0.5]);

    var names = container['hist_'+num]

    for (var i=0; i &lt; names.length; i++) {
        toggle(names[i], 'opacity', [1, 0])
    };
    }

</script><metadata>
  <rdf:RDF>
   <ns2:Work>
    <dc:type rdf:resource="http://purl.org/dc/dcmitype/StillImage" />
    <dc:date>2022-10-27T16:23:27.470282</dc:date>
    <dc:format>image/svg+xml</dc:format>
    <dc:creator>
     <ns2:Agent>
      <dc:title>Matplotlib v3.5.3, https://matplotlib.org/</dc:title>
     </ns2:Agent>
    </dc:creator>
   </ns2:Work>
  </rdf:RDF>
 </metadata>
 <defs>
  <style type="text/css">*{stroke-linejoin: round; stroke-linecap: butt}g {-webkit-transition:opacity 0.4s ease-out;-moz-transition:opacity 0.4s ease-out;}</style>
 </defs>
 <g id="figure_1">
  <g id="patch_1">
   <path d="M 0 288  L 432 288  L 432 0  L 0 0  L 0 288  z " style="fill: none" />
  </g>
  <g id="axes_1">
   <g id="patch_2">
    <path d="M 54 252  L 388.8 252  L 388.8 34.56  L 54 34.56  z " style="fill: #ffffff" />
   </g>
   <g id="hist_0_patch_0">
    <path d="M 69.218182 252  L 81.641187 252  L 81.641187 243.371429  L 69.218182 243.371429  z " clip-path="url(#p1b7fc5bda0)" style="fill: #1f77b4" />
   </g>
   <g id="hist_0_patch_1">
    <path d="M 100.275696 252  L 112.698701 252  L 112.698701 234.742857  L 100.275696 234.742857  z " clip-path="url(#p1b7fc5bda0)" style="fill: #1f77b4" />
   </g>
   <g id="hist_0_patch_2">
    <path d="M 131.33321 252  L 143.756215 252  L 143.756215 200.228571  L 131.33321 200.228571  z " clip-path="url(#p1b7fc5bda0)" style="fill: #1f77b4" />
   </g>
   <g id="hist_0_patch_3">
    <path d="M 162.390724 252  L 174.813729 252  L 174.813729 105.314286  L 162.390724 105.314286  z " clip-path="url(#p1b7fc5bda0)" style="fill: #1f77b4" />
   </g>
   <g id="hist_0_patch_4">
    <path d="M 193.448237 252  L 205.871243 252  L 205.871243 44.914286  L 193.448237 44.914286  z " clip-path="url(#p1b7fc5bda0)" style="fill: #1f77b4" />
   </g>
   <g id="hist_0_patch_5">
    <path d="M 224.505751 252  L 236.928757 252  L 236.928757 79.428571  L 224.505751 79.428571  z " clip-path="url(#p1b7fc5bda0)" style="fill: #1f77b4" />
   </g>
   <g id="hist_0_patch_6">
    <path d="M 255.563265 252  L 267.986271 252  L 267.986271 105.314286  L 255.563265 105.314286  z " clip-path="url(#p1b7fc5bda0)" style="fill: #1f77b4" />
   </g>
   <g id="hist_0_patch_7">
    <path d="M 286.620779 252  L 299.043785 252  L 299.043785 157.085714  L 286.620779 157.085714  z " clip-path="url(#p1b7fc5bda0)" style="fill: #1f77b4" />
   </g>
   <g id="hist_0_patch_8">
    <path d="M 317.678293 252  L 330.101299 252  L 330.101299 234.742857  L 317.678293 234.742857  z " clip-path="url(#p1b7fc5bda0)" style="fill: #1f77b4" />
   </g>
   <g id="hist_0_patch_9">
    <path d="M 348.735807 252  L 361.158813 252  L 361.158813 252  L 348.735807 252  z " clip-path="url(#p1b7fc5bda0)" style="fill: #1f77b4" />
   </g>
   <g id="hist_1_patch_0">
    <path d="M 81.641187 252  L 94.064193 252  L 94.064193 252  L 81.641187 252  z " clip-path="url(#p1b7fc5bda0)" style="fill: #ff7f0e" />
   </g>
   <g id="hist_1_patch_1">
    <path d="M 112.698701 252  L 125.121707 252  L 125.121707 243.371429  L 112.698701 243.371429  z " clip-path="url(#p1b7fc5bda0)" style="fill: #ff7f0e" />
   </g>
   <g id="hist_1_patch_2">
    <path d="M 143.756215 252  L 156.179221 252  L 156.179221 243.371429  L 143.756215 243.371429  z " clip-path="url(#p1b7fc5bda0)" style="fill: #ff7f0e" />
   </g>
   <g id="hist_1_patch_3">
    <path d="M 174.813729 252  L 187.236735 252  L 187.236735 234.742857  L 174.813729 234.742857  z " clip-path="url(#p1b7fc5bda0)" style="fill: #ff7f0e" />
   </g>
   <g id="hist_1_patch_4">
    <path d="M 205.871243 252  L 218.294249 252  L 218.294249 122.571429  L 205.871243 122.571429  z " clip-path="url(#p1b7fc5bda0)" style="fill: #ff7f0e" />
   </g>
   <g id="hist_1_patch_5">
    <path d="M 236.928757 252  L 249.351763 252  L 249.351763 96.685714  L 236.928757 96.685714  z " clip-path="url(#p1b7fc5bda0)" style="fill: #ff7f0e" />
   </g>
   <g id="hist_1_patch_6">
    <path d="M 267.986271 252  L 280.409276 252  L 280.409276 70.8  L 267.986271 70.8  z " clip-path="url(#p1b7fc5bda0)" style="fill: #ff7f0e" />
   </g>
   <g id="hist_1_patch_7">
    <path d="M 299.043785 252  L 311.46679 252  L 311.46679 53.542857  L 299.043785 53.542857  z " clip-path="url(#p1b7fc5bda0)" style="fill: #ff7f0e" />
   </g>
   <g id="hist_1_patch_8">
    <path d="M 330.101299 252  L 342.524304 252  L 342.524304 157.085714  L 330.101299 157.085714  z " clip-path="url(#p1b7fc5bda0)" style="fill: #ff7f0e" />
   </g>
   <g id="hist_1_patch_9">
    <path d="M 361.158813 252  L 373.581818 252  L 373.581818 182.971429  L 361.158813 182.971429  z " clip-path="url(#p1b7fc5bda0)" style="fill: #ff7f0e" />
   </g>
   <g id="matplotlib.axis_1">
    <g id="xtick_1">
     <g id="line2d_1">
      <defs>
       <path id="m683e43b5cb" d="M 0 0  L 0 3.5  " style="stroke: #000000; stroke-width: 0.8" />
      </defs>
      <g>
       <use ns4:href="#m683e43b5cb" x="72.198735" y="252" style="stroke: #000000; stroke-width: 0.8" />
      </g>
     </g>
     <g id="text_1">
      <text style="font: 10px 'sans-serif'; text-anchor: middle" x="72.198735" y="266.598437" transform="rotate(-0, 72.198735, 266.598437)">&#8722;3</text>
     </g>
    </g>
    <g id="xtick_2">
     <g id="line2d_2">
      <g>
       <use ns4:href="#m683e43b5cb" x="122.15259" y="252" style="stroke: #000000; stroke-width: 0.8" />
      </g>
     </g>
     <g id="text_2">
      <text style="font: 10px 'sans-serif'; text-anchor: middle" x="122.15259" y="266.598437" transform="rotate(-0, 122.15259, 266.598437)">&#8722;2</text>
     </g>
    </g>
    <g id="xtick_3">
     <g id="line2d_3">
      <g>
       <use ns4:href="#m683e43b5cb" x="172.106445" y="252" style="stroke: #000000; stroke-width: 0.8" />
      </g>
     </g>
     <g id="text_3">
      <text style="font: 10px 'sans-serif'; text-anchor: middle" x="172.106445" y="266.598437" transform="rotate(-0, 172.106445, 266.598437)">&#8722;1</text>
     </g>
    </g>
    <g id="xtick_4">
     <g id="line2d_4">
      <g>
       <use ns4:href="#m683e43b5cb" x="222.0603" y="252" style="stroke: #000000; stroke-width: 0.8" />
      </g>
     </g>
     <g id="text_4">
      <text style="font: 10px 'sans-serif'; text-anchor: middle" x="222.0603" y="266.598437" transform="rotate(-0, 222.0603, 266.598437)">0</text>
     </g>
    </g>
    <g id="xtick_5">
     <g id="line2d_5">
      <g>
       <use ns4:href="#m683e43b5cb" x="272.014155" y="252" style="stroke: #000000; stroke-width: 0.8" />
      </g>
     </g>
     <g id="text_5">
      <text style="font: 10px 'sans-serif'; text-anchor: middle" x="272.014155" y="266.598437" transform="rotate(-0, 272.014155, 266.598437)">1</text>
     </g>
    </g>
    <g id="xtick_6">
     <g id="line2d_6">
      <g>
       <use ns4:href="#m683e43b5cb" x="321.96801" y="252" style="stroke: #000000; stroke-width: 0.8" />
      </g>
     </g>
     <g id="text_6">
      <text style="font: 10px 'sans-serif'; text-anchor: middle" x="321.96801" y="266.598437" transform="rotate(-0, 321.96801, 266.598437)">2</text>
     </g>
    </g>
    <g id="xtick_7">
     <g id="line2d_7">
      <g>
       <use ns4:href="#m683e43b5cb" x="371.921866" y="252" style="stroke: #000000; stroke-width: 0.8" />
      </g>
     </g>
     <g id="text_7">
      <text style="font: 10px 'sans-serif'; text-anchor: middle" x="371.921866" y="266.598437" transform="rotate(-0, 371.921866, 266.598437)">3</text>
     </g>
    </g>
   </g>
   <g id="matplotlib.axis_2">
    <g id="ytick_1">
     <g id="line2d_8">
      <defs>
       <path id="mad99363fa0" d="M 0 0  L -3.5 0  " style="stroke: #000000; stroke-width: 0.8" />
      </defs>
      <g>
       <use ns4:href="#mad99363fa0" x="54" y="252" style="stroke: #000000; stroke-width: 0.8" />
      </g>
     </g>
     <g id="text_8">
      <text style="font: 10px 'sans-serif'; text-anchor: end" x="47" y="255.799219" transform="rotate(-0, 47, 255.799219)">0</text>
     </g>
    </g>
    <g id="ytick_2">
     <g id="line2d_9">
      <g>
       <use ns4:href="#mad99363fa0" x="54" y="208.857143" style="stroke: #000000; stroke-width: 0.8" />
      </g>
     </g>
     <g id="text_9">
      <text style="font: 10px 'sans-serif'; text-anchor: end" x="47" y="212.656362" transform="rotate(-0, 47, 212.656362)">5</text>
     </g>
    </g>
    <g id="ytick_3">
     <g id="line2d_10">
      <g>
       <use ns4:href="#mad99363fa0" x="54" y="165.714286" style="stroke: #000000; stroke-width: 0.8" />
      </g>
     </g>
     <g id="text_10">
      <text style="font: 10px 'sans-serif'; text-anchor: end" x="47" y="169.513504" transform="rotate(-0, 47, 169.513504)">10</text>
     </g>
    </g>
    <g id="ytick_4">
     <g id="line2d_11">
      <g>
       <use ns4:href="#mad99363fa0" x="54" y="122.571429" style="stroke: #000000; stroke-width: 0.8" />
      </g>
     </g>
     <g id="text_11">
      <text style="font: 10px 'sans-serif'; text-anchor: end" x="47" y="126.370647" transform="rotate(-0, 47, 126.370647)">15</text>
     </g>
    </g>
    <g id="ytick_5">
     <g id="line2d_12">
      <g>
       <use ns4:href="#mad99363fa0" x="54" y="79.428571" style="stroke: #000000; stroke-width: 0.8" />
      </g>
     </g>
     <g id="text_12">
      <text style="font: 10px 'sans-serif'; text-anchor: end" x="47" y="83.22779" transform="rotate(-0, 47, 83.22779)">20</text>
     </g>
    </g>
    <g id="ytick_6">
     <g id="line2d_13">
      <g>
       <use ns4:href="#mad99363fa0" x="54" y="36.285714" style="stroke: #000000; stroke-width: 0.8" />
      </g>
     </g>
     <g id="text_13">
      <text style="font: 10px 'sans-serif'; text-anchor: end" x="47" y="40.084933" transform="rotate(-0, 47, 40.084933)">25</text>
     </g>
    </g>
   </g>
   <g id="patch_3">
    <path d="M 54 252  L 54 34.56  " style="fill: none; stroke: #000000; stroke-width: 0.8; stroke-linejoin: miter; stroke-linecap: square" />
   </g>
   <g id="patch_4">
    <path d="M 388.8 252  L 388.8 34.56  " style="fill: none; stroke: #000000; stroke-width: 0.8; stroke-linejoin: miter; stroke-linecap: square" />
   </g>
   <g id="patch_5">
    <path d="M 54 252  L 388.8 252  " style="fill: none; stroke: #000000; stroke-width: 0.8; stroke-linejoin: miter; stroke-linecap: square" />
   </g>
   <g id="patch_6">
    <path d="M 54 34.56  L 388.8 34.56  " style="fill: none; stroke: #000000; stroke-width: 0.8; stroke-linejoin: miter; stroke-linecap: square" />
   </g>
   <g id="text_14">
    <text style="font: 12px 'sans-serif'" transform="translate(99.996563 15.122625)">From a web browser, click on the legend</text>
    <text style="font: 12px 'sans-serif'" transform="translate(80.41875 28.56)">marker to toggle the corresponding histogram.</text>
   </g>
   <g id="legend_1">
    <g id="leg_patch_0" cursor="pointer" onclick="toggle_hist(this)">
     <path d="M 63 51.158437  L 83 51.158437  L 83 44.158437  L 63 44.158437  z " style="fill: #1f77b4" />
    </g>
    <g id="leg_text_0" cursor="pointer" onclick="toggle_hist(this)">
     <text style="font: 10px 'sans-serif'; text-anchor: start" x="91" y="51.158437" transform="rotate(-0, 91, 51.158437)">Rabbits</text>
    </g>
    <g id="leg_patch_1" cursor="pointer" onclick="toggle_hist(this)">
     <path d="M 63 65.836562  L 83 65.836562  L 83 58.836562  L 63 58.836562  z " style="fill: #ff7f0e" />
    </g>
    <g id="leg_text_1" cursor="pointer" onclick="toggle_hist(this)">
     <text style="font: 10px 'sans-serif'; text-anchor: start" x="91" y="65.836562" transform="rotate(-0, 91, 65.836562)">Frogs</text>
    </g>
   </g>
  </g>
 </g>
 <defs>
  <clipPath id="p1b7fc5bda0">
   <rect x="54" y="34.56" width="334.8" height="217.44" />
  </clipPath>
 </defs>
</svg>